<svg width="2000" height="512" viewBox="0 0 2000 512" fill="none" xmlns="http://www.w3.org/2000/svg">
<path d="M0 256L384 34.2975L384 477.702L0 256Z" fill="#DF4716"/>
<path d="M636 398.8C616.533 398.8 598.933 395.467 583.2 388.8C567.733 382.133 555.467 372.533 546.4 360C537.333 347.467 532.667 332.667 532.4 315.6H592.4C593.2 327.067 597.2 336.133 604.4 342.8C611.867 349.467 622 352.8 634.8 352.8C647.867 352.8 658.133 349.733 665.6 343.6C673.067 337.2 676.8 328.933 676.8 318.8C676.8 310.533 674.267 303.733 669.2 298.4C664.133 293.067 657.733 288.933 650 286C642.533 282.8 632.133 279.333 618.8 275.6C600.667 270.267 585.867 265.067 574.4 260C563.2 254.667 553.467 246.8 545.2 236.4C537.2 225.733 533.2 211.6 533.2 194C533.2 177.467 537.333 163.067 545.6 150.8C553.867 138.533 565.467 129.2 580.4 122.8C595.333 116.133 612.4 112.8 631.6 112.8C660.4 112.8 683.733 119.867 701.6 134C719.733 147.867 729.733 167.333 731.6 192.4H670C669.467 182.8 665.333 174.933 657.6 168.8C650.133 162.4 640.133 159.2 627.6 159.2C616.667 159.2 607.867 162 601.2 167.6C594.8 173.2 591.6 181.333 591.6 192C591.6 199.467 594 205.733 598.8 210.8C603.867 215.6 610 219.6 617.2 222.8C624.667 225.733 635.067 229.2 648.4 233.2C666.533 238.533 681.333 243.867 692.8 249.2C704.267 254.533 714.133 262.533 722.4 273.2C730.667 283.867 734.8 297.867 734.8 315.2C734.8 330.133 730.933 344 723.2 356.8C715.467 369.6 704.133 379.867 689.2 387.6C674.267 395.067 656.533 398.8 636 398.8ZM908.15 171.2C924.95 171.2 939.883 174.933 952.95 182.4C966.017 189.6 976.15 200.4 983.35 214.8C990.817 228.933 994.55 246 994.55 266V396H938.55V273.6C938.55 256 934.15 242.533 925.35 233.2C916.55 223.6 904.55 218.8 889.35 218.8C873.883 218.8 861.617 223.6 852.55 233.2C843.75 242.533 839.35 256 839.35 273.6V396H783.35V100H839.35V202C846.55 192.4 856.15 184.933 868.15 179.6C880.15 174 893.483 171.2 908.15 171.2ZM1103.8 206.4C1111 196.267 1120.87 187.867 1133.4 181.2C1146.2 174.267 1160.74 170.8 1177 170.8C1195.94 170.8 1213 175.467 1228.2 184.8C1243.67 194.133 1255.8 207.467 1264.6 224.8C1273.67 241.867 1278.2 261.733 1278.2 284.4C1278.2 307.067 1273.67 327.2 1264.6 344.8C1255.8 362.133 1243.67 375.6 1228.2 385.2C1213 394.8 1195.94 399.6 1177 399.6C1160.74 399.6 1146.34 396.267 1133.8 389.6C1121.54 382.933 1111.54 374.533 1103.8 364.4V501.6H1047.8V174.4H1103.8V206.4ZM1221 284.4C1221 271.067 1218.2 259.6 1212.6 250C1207.27 240.133 1200.07 232.667 1191 227.6C1182.2 222.533 1172.6 220 1162.2 220C1152.07 220 1142.47 222.667 1133.4 228C1124.6 233.067 1117.4 240.533 1111.8 250.4C1106.47 260.267 1103.8 271.867 1103.8 285.2C1103.8 298.533 1106.47 310.133 1111.8 320C1117.4 329.867 1124.6 337.467 1133.4 342.8C1142.47 347.867 1152.07 350.4 1162.2 350.4C1172.6 350.4 1182.2 347.733 1191 342.4C1200.07 337.067 1207.27 329.467 1212.6 319.6C1218.2 309.733 1221 298 1221 284.4ZM1417.3 399.6C1395.96 399.6 1376.76 394.933 1359.7 385.6C1342.63 376 1329.16 362.533 1319.3 345.2C1309.7 327.867 1304.9 307.867 1304.9 285.2C1304.9 262.533 1309.83 242.533 1319.7 225.2C1329.83 207.867 1343.56 194.533 1360.9 185.2C1378.23 175.6 1397.56 170.8 1418.9 170.8C1440.23 170.8 1459.56 175.6 1476.9 185.2C1494.23 194.533 1507.83 207.867 1517.7 225.2C1527.83 242.533 1532.9 262.533 1532.9 285.2C1532.9 307.867 1527.7 327.867 1517.3 345.2C1507.16 362.533 1493.3 376 1475.7 385.6C1458.36 394.933 1438.9 399.6 1417.3 399.6ZM1417.3 350.8C1427.43 350.8 1436.9 348.4 1445.7 343.6C1454.76 338.533 1461.96 331.067 1467.3 321.2C1472.63 311.333 1475.3 299.333 1475.3 285.2C1475.3 264.133 1469.7 248 1458.5 236.8C1447.56 225.333 1434.1 219.6 1418.1 219.6C1402.1 219.6 1388.63 225.333 1377.7 236.8C1367.03 248 1361.7 264.133 1361.7 285.2C1361.7 306.267 1366.9 322.533 1377.3 334C1387.96 345.2 1401.3 350.8 1417.3 350.8ZM1639.18 220.4V327.6C1639.18 335.067 1640.91 340.533 1644.38 344C1648.11 347.2 1654.24 348.8 1662.78 348.8H1688.78V396H1653.58C1606.38 396 1582.78 373.067 1582.78 327.2V220.4H1556.38V174.4H1582.78V119.6H1639.18V174.4H1688.78V220.4H1639.18ZM1794.25 220.4V327.6C1794.25 335.067 1795.99 340.533 1799.45 344C1803.19 347.2 1809.32 348.8 1817.85 348.8H1843.85V396H1808.65C1761.45 396 1737.85 373.067 1737.85 327.2V220.4H1711.45V174.4H1737.85V119.6H1794.25V174.4H1843.85V220.4H1794.25ZM1912.53 148C1902.66 148 1894.4 144.933 1887.73 138.8C1881.33 132.4 1878.13 124.533 1878.13 115.2C1878.13 105.867 1881.33 98.1333 1887.73 92C1894.4 85.6 1902.66 82.4 1912.53 82.4C1922.4 82.4 1930.53 85.6 1936.93 92C1943.6 98.1333 1946.93 105.867 1946.93 115.2C1946.93 124.533 1943.6 132.4 1936.93 138.8C1930.53 144.933 1922.4 148 1912.53 148ZM1940.13 174.4V396H1884.13V174.4H1940.13Z" fill="black"/>
</svg>
